# xmcd CD database file
#
# Track frame offsets:
#	150
#	18000
#	39600
#	63975
#	95775
#	114075
#	129150
#	139050
#	172650
#	186675
#	208575
#	220650
#	242175
#	267975
#	288675
#
# Disc length: 4387 seconds
#
# Revision: 0
# Processed by: cddbd v1.5.2PL0 Copyright (c) Steve Scherf et al.
# Submitted via: CDex 1.51
#
DISCID=da11210f
DTITLE=Various Artist - Back Porch Blues and Brews Festival III
DYEAR=2002
DGENRE=Blues
TTITLE0=Nicole Petersen, Michael Storm, Steve Scheckles - Over The Rainbow
TTITLE1=Blues Cat - Slip Away
TTITLE2=Tommy McCoy Blues Combo - Stay In F.L.A.
TTITLE3=Motor City Josh - The Skillet
TTITLE4=Patrick Vining Band - What's Right
TTITLE5=X Miss Americas - Moonshine
TTITLE6=Nicole Petersen, Michael Storm - Movin' On
TTITLE7=Tommy McCoy Blues Combo - Bitter Soul To Heal
TTITLE8=Blues Cat - Give It A Rest
TTITLE9=Steve Arvey - Canned Heat
TTITLE10=Patrick Vining Band - Always Running
TTITLE11=Tommy McCoy Blues Combo - A Man Who Cried
TTITLE12=Bluesolution - Dixie Blues
TTITLE13=Patrick Vining Band - Hangin' On
TTITLE14=Motor City Josh - 54 - 46
EXTD=YEAR: 2002
EXTT0=
EXTT1=
EXTT2=
EXTT3=
EXTT4=
EXTT5=
EXTT6=
EXTT7=
EXTT8=
EXTT9=
EXTT10=
EXTT11=
EXTT12=
EXTT13=
EXTT14=
PLAYORDER=
